<svg xmlns="http://www.w3.org/2000/svg" version="1.1" xmlns:xlink="http://www.w3.org/1999/xlink" xmlns:svgjs="http://svgjs.dev/svgjs" width="1500" height="299" viewBox="0 0 1500 299"><g transform="matrix(1,0,0,1,-0.9090909090911055,-0.5106622807351755)"><svg viewBox="0 0 396 79" data-background-color="#ffffff" preserveAspectRatio="xMidYMid meet" height="299" width="1500" xmlns="http://www.w3.org/2000/svg" xmlns:xlink="http://www.w3.org/1999/xlink"><g id="tight-bounds" transform="matrix(1,0,0,1,0.24000000000003752,0.13492414775276984)"><svg viewBox="0 0 395.5199999999999 78.73015170449449" height="78.73015170449449" width="395.5199999999999"><g><svg viewBox="0 0 657.4760437567161 130.87375775444255" height="78.73015170449449" width="395.5199999999999"><g transform="matrix(1,0,0,1,261.95604375671604,28.320264404093898)"><svg viewBox="0 0 395.52 74.23322894625475" height="74.23322894625475" width="395.52"><g id="textblocktransform"><svg viewBox="0 0 395.52 74.23322894625475" height="74.23322894625475" width="395.52" id="textblock"><g><svg viewBox="0 0 395.52 74.23322894625475" height="74.23322894625475" width="395.52"><g transform="matrix(1,0,0,1,0,0)"><svg width="395.52" viewBox="3.05 -35.21 230.73999999999998 43.32" height="74.23322894625475" data-palette-color="url(#9dcd6733-3c7d-47a3-9189-f2a766ada4e3)"></svg></g></svg></g></svg></g></svg></g><g><svg viewBox="0 0 244.43135999999998 130.87375775444255" height="130.87375775444255" width="244.43135999999998"><g><svg xmlns="http://www.w3.org/2000/svg" xmlns:xlink="http://www.w3.org/1999/xlink" version="1.1" x="0" y="0" viewBox="0.6896103727003051 23.599 98.62188968419832 52.80426087640771" enable-background="new 0 0 100 100" xml:space="preserve" height="130.87375775444255" width="244.43135999999998" class="icon-icon-0" data-fill-palette-color="accent" id="icon-0"></svg></g></svg></g></svg></g><defs></defs><mask id="647c7dc4-a98a-42e4-a2d8-a611cc38ffb7"><g id="SvgjsG5097"><svg viewBox="0 0 395.5199999999999 78.73015170449449" height="78.73015170449449" width="395.5199999999999"><g><svg viewBox="0 0 657.4760437567161 130.87375775444255" height="78.73015170449449" width="395.5199999999999"><g transform="matrix(1,0,0,1,261.95604375671604,28.320264404093898)"><svg viewBox="0 0 395.52 74.23322894625475" height="74.23322894625475" width="395.52"><g id="SvgjsG5096"><svg viewBox="0 0 395.52 74.23322894625475" height="74.23322894625475" width="395.52" id="SvgjsSvg5095"><g><svg viewBox="0 0 395.52 74.23322894625475" height="74.23322894625475" width="395.52"><g transform="matrix(1,0,0,1,0,0)"><svg width="395.52" viewBox="3.05 -35.21 230.73999999999998 43.32" height="74.23322894625475" data-palette-color="url(#9dcd6733-3c7d-47a3-9189-f2a766ada4e3)"><path d="M27.51-34.23L31.71-34.23Q32.71-34.23 32.71-33.2L32.71-33.2Q32.71-31.96 32.67-30.71 32.62-29.47 32.59-28.22L32.59-28.22Q32.54-25.61 32.52-22.97 32.5-20.34 32.5-17.72L32.5-17.72Q32.5-14.92 32.52-12.08 32.54-9.25 32.59-6.42L32.59-6.42Q32.64-5.08 32.69-3.72 32.74-2.37 32.74-1.03L32.74-1.03Q32.74 0 31.74 0L31.74 0 27.54 0Q27 0 26.81-0.24 26.61-0.49 26.54-0.98L26.54-0.98Q26.49-1.42 26.48-2.21 26.46-3 26.48-3.83 26.49-4.66 26.49-5.18L26.49-5.18Q26.42-9.57 26.42-13.96L26.42-13.96Q26.42-14.26 26.1-14.26L26.1-14.26 9.69-14.26Q9.4-14.26 9.4-13.96L9.4-13.96Q9.4-9.57 9.33-5.18L9.33-5.18Q9.33-4.66 9.34-3.83 9.35-3 9.35-2.21 9.35-1.42 9.28-0.98L9.28-0.98Q9.2-0.49 9.02-0.24 8.84 0 8.28 0L8.28 0 4.05 0Q3.05 0 3.05-1.03L3.05-1.03Q3.05-2.37 3.11-3.72 3.17-5.08 3.2-6.42L3.2-6.42Q3.25-9.25 3.27-12.08 3.3-14.92 3.3-17.72L3.3-17.72Q3.3-20.34 3.27-22.97 3.25-25.61 3.2-28.22L3.2-28.22Q3.17-29.47 3.13-30.71 3.08-31.96 3.08-33.2L3.08-33.2Q3.08-34.23 4.08-34.23L4.08-34.23 8.3-34.23Q8.86-34.23 9.05-33.98 9.23-33.74 9.3-33.25L9.3-33.25Q9.4-32.59 9.36-31.24 9.33-29.88 9.35-29.1L9.35-29.1Q9.38-26.93 9.39-24.74 9.4-22.56 9.4-20.39L9.4-20.39Q9.4-20.09 9.72-20.09L9.72-20.09 26.1-20.09Q26.42-20.09 26.42-20.39L26.42-20.39Q26.42-22.56 26.43-24.74 26.44-26.93 26.46-29.1L26.46-29.1Q26.49-29.88 26.45-31.24 26.42-32.59 26.51-33.25L26.51-33.25Q26.59-33.74 26.78-33.98 26.98-34.23 27.51-34.23L27.51-34.23ZM49 0.59L49 0.59Q45.43 0.59 42.78-0.83 40.13-2.25 38.67-4.86 37.2-7.47 37.2-11.06L37.2-11.06Q37.2-14.4 38.6-17.07 39.99-19.73 42.53-21.28 45.07-22.83 48.48-22.83L48.48-22.83Q52.71-22.83 55.11-20.46 57.52-18.09 58.37-14.16L58.37-14.16Q58.4-14.09 58.4-13.92L58.4-13.92Q58.4-13.55 58.21-13.37 58.03-13.18 57.74-13.06L57.74-13.06Q56.91-12.67 55.98-12.38 55.05-12.08 54.17-11.74L54.17-11.74Q51.61-10.79 49.02-9.88 46.43-8.96 43.89-7.93L43.89-7.93Q43.7-7.84 43.7-7.69L43.7-7.69Q43.7-7.62 43.75-7.52L43.75-7.52Q44.72-5.76 46.43-4.91 48.14-4.05 50.1-4.05L50.1-4.05Q51.63-4.05 52.96-4.54 54.29-5.03 55.59-5.76L55.59-5.76Q55.76-5.86 55.93-5.93 56.1-6.01 56.27-6.01L56.27-6.01Q56.61-6.01 56.8-5.8 56.98-5.59 57.1-5.32L57.1-5.32Q57.2-5.15 57.48-4.55 57.76-3.96 58.02-3.36 58.27-2.76 58.27-2.59L58.27-2.59Q58.27-2.32 58.13-2.15 57.98-1.98 57.79-1.83L57.79-1.83Q56.05-0.63 53.57-0.02 51.1 0.59 49 0.59ZM42.87-11.3L42.87-11.3Q45.33-12.16 47.8-13.01 50.27-13.87 52.71-14.72L52.71-14.72Q52.1-16.06 51.01-17.07 49.92-18.07 48.34-18.07L48.34-18.07Q46.48-18.07 45.26-17.07 44.04-16.06 43.45-14.51 42.87-12.96 42.87-11.3ZM70.94 0.46L70.94 0.46Q67.77 0.46 65.62-1.05 63.47-2.56 62.39-5.07 61.3-7.57 61.3-10.5L61.3-10.5 61.3-10.89Q61.35-13.96 62.58-16.67 63.81-19.38 66.16-21.06 68.5-22.73 71.82-22.73L71.82-22.73Q73.87-22.73 75.64-21.96 77.41-21.19 78.95-19.87L78.95-19.87Q79.12-19.7 79.24-19.7L79.24-19.7Q79.54-19.7 79.52-20.31 79.51-20.92 79.69-21.53 79.88-22.14 80.66-22.14L80.66-22.14 84.1-22.14Q85.1-22.14 85.1-21.14L85.1-21.14Q85.1-20.09 85.09-19.04 85.08-17.99 85.08-16.94L85.08-16.94Q85.08-14.26 85.11-11.55 85.15-8.84 85.18-6.15L85.18-6.15Q85.2-4.88 85.24-3.6 85.27-2.32 85.27-1.03L85.27-1.03Q85.27 0 84.27 0L84.27 0 80.44 0Q79.78 0 79.58-0.43 79.39-0.85 79.41-1.44 79.44-2.03 79.41-2.49L79.41-2.49Q79.41-2.56 79.39-2.73 79.37-2.91 79.24-2.91L79.24-2.91Q79.15-2.91 79.06-2.83 78.97-2.76 78.9-2.71L78.9-2.71Q77.19-1.27 75.21-0.4 73.24 0.46 70.94 0.46ZM73.43-4.74L73.43-4.74Q75.17-4.74 76.64-5.46 78.12-6.18 78.95-7.74L78.95-7.74Q79-7.84 79.18-8.24 79.37-8.64 79.37-8.74L79.37-8.74Q79.37-9.59 79.35-10.45 79.34-11.3 79.34-12.13L79.34-12.13Q79.34-12.52 79.37-13 79.39-13.48 79.34-13.84L79.34-13.84Q79.32-14.01 79.16-14.36 79-14.7 78.93-14.84L78.93-14.84Q78.07-16.38 76.51-17.14 74.95-17.9 73.24-17.9L73.24-17.9Q71.43-17.9 70.06-16.99 68.7-16.09 67.93-14.61 67.16-13.13 67.16-11.38L67.16-11.38Q67.16-9.62 67.96-8.11 68.77-6.59 70.2-5.66 71.63-4.74 73.43-4.74ZM90.18-34.2L90.18-34.2Q90.18-35.21 91.18-35.21L91.18-35.21 95.04-35.21Q96.04-35.21 96.04-34.2L96.04-34.2Q96.04-30.05 96.01-25.9 95.99-21.75 95.99-17.6L95.99-17.6Q95.99-13.45 96.01-9.3 96.04-5.15 96.04-1L96.04-1Q96.04 0 95.04 0L95.04 0 91.18 0Q90.18 0 90.18-1L90.18-1Q90.18-5.15 90.2-9.3 90.23-13.45 90.23-17.6L90.23-17.6Q90.23-21.75 90.2-25.9 90.18-30.05 90.18-34.2ZM103.53-22.49L103.53-22.49Q103.53-24.58 103.51-26.67 103.48-28.76 103.48-30.83L103.48-30.83Q103.48-31.84 104.48-31.84L104.48-31.84 108.32-31.84Q109.32-31.84 109.32-30.83L109.32-30.83Q109.32-28.76 109.3-26.67 109.29-24.58 109.29-22.49L109.29-22.49Q109.29-22.19 109.61-22.19L109.61-22.19 113.44-22.19Q114.44-22.19 114.44-21.19L114.44-21.19Q114.44-20.43 114.43-19.67 114.42-18.9 114.42-18.12L114.42-18.12Q114.42-17.11 113.42-17.11L113.42-17.11 109.61-17.11Q109.29-17.11 109.29-16.82L109.29-16.82Q109.29-12.87 109.32-8.91 109.34-4.96 109.34-1L109.34-1Q109.34 0 108.34 0L108.34 0 104.46 0Q103.46 0 103.46-1L103.46-1Q103.46-4.96 103.49-8.91 103.53-12.87 103.53-16.82L103.53-16.82Q103.53-17.19 103.02-17.18 102.5-17.16 101.85-17.09 101.19-17.02 100.67-17.19 100.16-17.36 100.16-18.12L100.16-18.12 100.16-21.19Q100.16-22.19 101.16-22.19L101.16-22.19 103.21-22.19Q103.53-22.19 103.53-22.49ZM122.84 0L119.01 0Q118.01 0 118.01-1.03L118.01-1.03Q118.01-2.37 118.04-3.7 118.08-5.03 118.1-6.37L118.1-6.37Q118.15-9.18 118.18-11.99 118.2-14.79 118.2-17.6L118.2-17.6Q118.2-20.41 118.18-23.22 118.15-26.03 118.1-28.83L118.1-28.83Q118.08-30.18 118.04-31.51 118.01-32.84 118.01-34.18L118.01-34.18Q118.01-35.21 119.01-35.21L119.01-35.21 122.72-35.21Q123.3-35.21 123.49-34.96 123.67-34.72 123.72-34.2L123.72-34.2Q123.77-33.89 123.74-33.52 123.72-33.15 123.74-32.81L123.74-32.81 123.77-29.54Q123.79-27.1 123.8-24.65 123.82-22.19 123.82-19.73L123.82-19.73Q123.82-19.68 123.83-19.45 123.84-19.21 123.99-19.21L123.99-19.21Q124.11-19.21 124.23-19.34 124.35-19.46 124.4-19.53L124.4-19.53Q127.36-22.73 131.87-22.73L131.87-22.73Q133.8-22.73 135.46-21.96 137.12-21.19 138.16-19.73 139.2-18.26 139.2-16.21L139.2-16.21Q139.2-12.43 139.28-8.62 139.37-4.81 139.37-1.03L139.37-1.03Q139.37 0 138.37 0L138.37 0 134.53 0Q133.95 0 133.76-0.24 133.58-0.49 133.53-1L133.53-1Q133.43-1.83 133.47-3.02 133.51-4.2 133.48-5.08L133.48-5.08Q133.46-7.35 133.46-9.61 133.46-11.87 133.46-14.14L133.46-14.14Q133.46-15.87 132.48-16.74 131.51-17.6 129.85-17.6L129.85-17.6Q127.8-17.6 126.49-16.32 125.18-15.04 124.55-13.18 123.91-11.33 123.91-9.57L123.91-9.57Q123.91-7.42 123.89-5.29 123.86-3.15 123.84-1L123.84-1Q123.84 0 122.84 0L122.84 0ZM161.8-32.45L161.8-32.45Q161.8-32.32 161.63-31.54 161.46-30.76 161.28-29.97 161.09-29.17 161.02-29L161.02-29Q160.92-28.66 160.75-28.41 160.58-28.15 160.17-28.15L160.17-28.15Q159.9-28.15 159.58-28.27L159.58-28.27Q158.65-28.59 157.71-28.8 156.77-29 155.77-29L155.77-29Q154.55-29 153.34-28.66 152.13-28.32 151.33-27.49 150.52-26.66 150.52-25.2L150.52-25.2Q150.52-23.36 151.45-22.18 152.38-21 153.83-20.15 155.28-19.31 156.92-18.49 158.55-17.68 160.01-16.56 161.46-15.45 162.39-13.77 163.32-12.08 163.32-9.45L163.32-9.45Q163.32-5.83 161.61-3.69 159.9-1.54 157.11-0.59 154.33 0.37 151.13 0.37L151.13 0.37Q150.18 0.37 148.87 0.26 147.57 0.15 146.29-0.09 145-0.32 144.13-0.66L144.13-0.66Q143.83-0.78 143.64-0.95 143.44-1.12 143.44-1.49L143.44-1.49Q143.44-1.64 143.64-2.45 143.83-3.27 144.05-4.1 144.27-4.93 144.32-5.13L144.32-5.13Q144.44-5.47 144.6-5.69 144.76-5.91 145.18-5.91L145.18-5.91Q145.42-5.91 145.64-5.83L145.64-5.83Q146.84-5.49 148.07-5.25 149.3-5 150.55-5L150.55-5Q152.08-5 153.51-5.43 154.94-5.86 155.86-6.88 156.77-7.91 156.77-9.69L156.77-9.69Q156.77-11.72 155.82-12.95 154.87-14.18 153.38-15.03 151.89-15.87 150.22-16.64 148.54-17.41 147.06-18.43 145.57-19.46 144.61-21.09 143.66-22.73 143.66-25.34L143.66-25.34Q143.66-28.59 145.2-30.58 146.74-32.57 149.25-33.5 151.77-34.42 154.65-34.42L154.65-34.42Q156.09-34.42 157.97-34.16 159.85-33.89 161.17-33.3L161.17-33.3Q161.46-33.18 161.63-33 161.8-32.81 161.8-32.45ZM174.88 8.11L171.32 8.11Q170.98 8.11 170.59 7.98 170.2 7.86 170.2 7.4L170.2 7.4Q170.2 7.2 170.26 7.03 170.32 6.86 170.39 6.69L170.39 6.69Q171.32 4.57 172.31 2.47 173.3 0.37 174.23-1.76L174.23-1.76 174.23-1.98Q172.2-6.67 170.17-11.35 168.15-16.04 166.14-20.75L166.14-20.75Q165.97-21.14 165.97-21.44L165.97-21.44Q165.97-21.9 166.35-22.02 166.73-22.14 167.07-22.14L167.07-22.14 171.34-22.14Q171.74-22.14 171.92-21.98 172.1-21.83 172.27-21.51L172.27-21.51Q172.69-20.68 173.02-19.78 173.35-18.87 173.66-18.02L173.66-18.02Q174.52-15.89 175.34-13.76 176.15-11.62 177.06-9.52L177.06-9.52Q177.11-9.45 177.18-9.31 177.25-9.18 177.35-9.18L177.35-9.18Q177.45-9.18 177.52-9.3 177.59-9.42 177.62-9.5L177.62-9.5Q178.6-11.6 179.5-13.76 180.4-15.92 181.33-18.04L181.33-18.04Q181.7-18.9 182.05-19.81 182.4-20.73 182.84-21.56L182.84-21.56Q183.19-22.14 183.77-22.14L183.77-22.14 186.8-22.14Q187.17-22.14 187.53-22.02 187.9-21.9 187.9-21.44L187.9-21.44Q187.9-21.14 187.73-20.75L187.73-20.75Q185.94-16.41 184.1-12.08 182.26-7.76 180.45-3.42L180.45-3.42Q179.69-1.59 178.93 0.23 178.16 2.05 177.38 3.86L177.38 3.86Q176.98 4.76 176.61 5.69 176.23 6.62 175.81 7.5L175.81 7.5Q175.52 8.11 174.88 8.11L174.88 8.11ZM192.31-22.14L195.61-22.14Q196.51-22.14 196.61-21.26L196.61-21.26Q196.68-20.78 196.73-20.29 196.78-19.8 196.83-19.31L196.83-19.31Q196.83-19.26 196.88-19.03 196.93-18.8 197.05-18.8L197.05-18.8Q197.17-18.8 197.28-18.95 197.39-19.09 197.44-19.17L197.44-19.17Q198.91-21.04 201.01-21.88 203.11-22.71 205.42-22.71L205.42-22.71Q207.33-22.71 208.93-21.91 210.53-21.12 211.5-19.67 212.48-18.21 212.48-16.21L212.48-16.21Q212.48-12.43 212.57-8.62 212.65-4.81 212.65-1.03L212.65-1.03Q212.65 0 211.65 0L211.65 0 207.82 0Q206.89 0 206.82-1L206.82-1Q206.74-2.05 206.77-3.11 206.79-4.17 206.77-5.22L206.77-5.22Q206.74-7.47 206.74-9.69 206.74-11.91 206.74-14.14L206.74-14.14Q206.74-15.87 205.74-16.74 204.74-17.6 203.08-17.6L203.08-17.6Q201.01-17.6 199.67-16.33 198.34-15.06 197.7-13.21 197.05-11.35 197.05-9.57L197.05-9.57Q197.05-7.42 197.03-5.29 197-3.15 196.98-1L196.98-1Q196.98 0 195.98 0L195.98 0 192.14 0Q191.14 0 191.14-1.03L191.14-1.03Q191.14-2.39 191.18-3.75 191.22-5.1 191.24-6.45L191.24-6.45Q191.31-12.16 191.31-17.87L191.31-17.87 191.31-21.14Q191.31-22.14 192.31-22.14L192.31-22.14ZM231.74-5.62L231.74-5.62Q232.08-5.62 232.27-5.4 232.45-5.18 232.57-4.91L232.57-4.91Q232.67-4.71 232.96-3.96 233.25-3.2 233.51-2.47 233.77-1.73 233.77-1.59L233.77-1.59Q233.77-1.05 232.92-0.66 232.08-0.27 230.91-0.02 229.74 0.22 228.69 0.33 227.64 0.44 227.2 0.44L227.2 0.44Q222.05 0.44 219.17-2.61 216.29-5.66 216.29-10.74L216.29-10.74Q216.29-14.14 217.62-16.85 218.95-19.56 221.46-21.14 223.98-22.73 227.49-22.73L227.49-22.73Q228.86-22.73 230.45-22.42 232.03-22.12 233.23-21.46L233.23-21.46Q233.47-21.34 233.63-21.18 233.79-21.02 233.79-20.73L233.79-20.73Q233.79-20.48 233.67-20.24L233.67-20.24 232.55-17.41Q232.28-16.72 231.69-16.72L231.69-16.72Q231.45-16.72 231.15-16.85L231.15-16.85Q230.35-17.11 229.54-17.3 228.74-17.48 227.88-17.48L227.88-17.48Q224.93-17.48 223.5-15.63 222.07-13.77 222.07-11.01L222.07-11.01Q222.07-8.35 223.43-6.53 224.78-4.71 227.64-4.71L227.64-4.71Q228.57-4.71 229.42-4.93 230.28-5.15 231.13-5.47L231.13-5.47Q231.28-5.52 231.42-5.57 231.57-5.62 231.74-5.62Z" opacity="1" transform="matrix(1,0,0,1,0,0)" fill="white" class="wordmark-text-0" id="SvgjsPath5094"></path></svg></g></svg></g></svg></g></svg></g><g><svg viewBox="0 0 244.43135999999998 130.87375775444255" height="130.87375775444255" width="244.43135999999998"><g><svg xmlns="http://www.w3.org/2000/svg" xmlns:xlink="http://www.w3.org/1999/xlink" version="1.1" x="0" y="0" viewBox="0.6896103727003051 23.599 98.62188968419832 52.80426087640771" enable-background="new 0 0 100 100" xml:space="preserve" height="130.87375775444255" width="244.43135999999998" class="icon-icon-0" data-fill-palette-color="accent" id="SvgjsSvg5093"><g fill="black"><path d="M97.066 49.294H84.667C83.748 49.294 82.922 49.854 82.582 50.706L81.041 54.563 72.499 33.185A2.243 2.243 0 0 0 68.33 33.185L61.894 49.294H53.06C55.074 43.669 55.104 37.549 53.018 32.66 51.208 28.42 48.037 25.536 43.849 24.32 42.2 23.842 40.584 23.599 39.045 23.599 33.326 23.599 29.691 26.836 27.635 29.587 25.578 26.836 21.944 23.599 16.224 23.599 14.685 23.599 13.069 23.842 11.42 24.321 7.232 25.536 4.062 28.421 2.252 32.66-0.249 38.521 0.281 46.153 3.638 52.579 9.163 63.151 25.598 75.44 26.295 75.959A2.24 2.24 0 0 0 28.973 75.959C29.644 75.46 44.882 64.064 50.955 53.784H63.415C64.333 53.784 65.159 53.224 65.5 52.372L70.415 40.069 78.957 61.448A2.245 2.245 0 0 0 83.127 61.448L86.188 53.784H97.067A2.245 2.245 0 0 0 97.066 49.294M27.634 71.325C23.635 68.192 11.806 58.516 7.617 50.5 4.91 45.316 4.425 39.006 6.381 34.422 7.262 32.358 9.069 29.678 12.672 28.631 13.914 28.271 15.109 28.088 16.224 28.088 22.353 28.088 25.085 33.743 25.571 34.877A2.247 2.247 0 0 0 29.699 34.877C30.184 33.743 32.916 28.088 39.045 28.088 40.16 28.088 41.355 28.271 42.596 28.631 46.2 29.678 48.007 32.358 48.887 34.422 50.845 39.005 50.359 45.316 47.652 50.499 43.462 58.516 31.633 68.192 27.634 71.325" fill="black"></path></g></svg></g></svg></g></svg></g><defs><mask></mask></defs></svg><rect width="395.5199999999999" height="78.73015170449449" fill="black" stroke="none" visibility="hidden"></rect></g></mask><linearGradient x1="0" x2="1" y1="0.548" y2="0.55" id="9dcd6733-3c7d-47a3-9189-f2a766ada4e3"><stop stop-color="#ff6cab" offset="0"></stop><stop stop-color="#7366ff" offset="1"></stop></linearGradient><rect width="395.5199999999999" height="78.73015170449449" fill="url(#9dcd6733-3c7d-47a3-9189-f2a766ada4e3)" mask="url(#647c7dc4-a98a-42e4-a2d8-a611cc38ffb7)" data-fill-palette-color="primary"></rect><mask id="9b0017eb-5213-43b8-bdd5-d00db70a1cd1"><g id="SvgjsG5106"><svg viewBox="0 0 395.5199999999999 78.73015170449449" height="78.73015170449449" width="395.5199999999999"><g><svg viewBox="0 0 657.4760437567161 130.87375775444255" height="78.73015170449449" width="395.5199999999999"><g transform="matrix(1,0,0,1,261.95604375671604,28.320264404093898)"><svg viewBox="0 0 395.52 74.23322894625475" height="74.23322894625475" width="395.52"><g id="SvgjsG5105"><svg viewBox="0 0 395.52 74.23322894625475" height="74.23322894625475" width="395.52" id="SvgjsSvg5104"><g><svg viewBox="0 0 395.52 74.23322894625475" height="74.23322894625475" width="395.52"><g transform="matrix(1,0,0,1,0,0)"><svg width="395.52" viewBox="3.05 -35.21 230.73999999999998 43.32" height="74.23322894625475" data-palette-color="url(#9dcd6733-3c7d-47a3-9189-f2a766ada4e3)"></svg></g></svg></g></svg></g></svg></g><g><svg viewBox="0 0 244.43135999999998 130.87375775444255" height="130.87375775444255" width="244.43135999999998"><g><svg xmlns="http://www.w3.org/2000/svg" xmlns:xlink="http://www.w3.org/1999/xlink" version="1.1" x="0" y="0" viewBox="0.6896103727003051 23.599 98.62188968419832 52.80426087640771" enable-background="new 0 0 100 100" xml:space="preserve" height="130.87375775444255" width="244.43135999999998" class="icon-icon-0" data-fill-palette-color="accent" id="SvgjsSvg5103"><g fill="white"><path d="M97.066 49.294H84.667C83.748 49.294 82.922 49.854 82.582 50.706L81.041 54.563 72.499 33.185A2.243 2.243 0 0 0 68.33 33.185L61.894 49.294H53.06C55.074 43.669 55.104 37.549 53.018 32.66 51.208 28.42 48.037 25.536 43.849 24.32 42.2 23.842 40.584 23.599 39.045 23.599 33.326 23.599 29.691 26.836 27.635 29.587 25.578 26.836 21.944 23.599 16.224 23.599 14.685 23.599 13.069 23.842 11.42 24.321 7.232 25.536 4.062 28.421 2.252 32.66-0.249 38.521 0.281 46.153 3.638 52.579 9.163 63.151 25.598 75.44 26.295 75.959A2.24 2.24 0 0 0 28.973 75.959C29.644 75.46 44.882 64.064 50.955 53.784H63.415C64.333 53.784 65.159 53.224 65.5 52.372L70.415 40.069 78.957 61.448A2.245 2.245 0 0 0 83.127 61.448L86.188 53.784H97.067A2.245 2.245 0 0 0 97.066 49.294M27.634 71.325C23.635 68.192 11.806 58.516 7.617 50.5 4.91 45.316 4.425 39.006 6.381 34.422 7.262 32.358 9.069 29.678 12.672 28.631 13.914 28.271 15.109 28.088 16.224 28.088 22.353 28.088 25.085 33.743 25.571 34.877A2.247 2.247 0 0 0 29.699 34.877C30.184 33.743 32.916 28.088 39.045 28.088 40.16 28.088 41.355 28.271 42.596 28.631 46.2 29.678 48.007 32.358 48.887 34.422 50.845 39.005 50.359 45.316 47.652 50.499 43.462 58.516 31.633 68.192 27.634 71.325" fill="white"></path></g></svg></g></svg></g></svg></g><defs><mask></mask></defs><mask><g id="SvgjsG5102"><svg viewBox="0 0 395.5199999999999 78.73015170449449" height="78.73015170449449" width="395.5199999999999"><g><svg viewBox="0 0 657.4760437567161 130.87375775444255" height="78.73015170449449" width="395.5199999999999"><g transform="matrix(1,0,0,1,261.95604375671604,28.320264404093898)"><svg viewBox="0 0 395.52 74.23322894625475" height="74.23322894625475" width="395.52"><g id="SvgjsG5101"><svg viewBox="0 0 395.52 74.23322894625475" height="74.23322894625475" width="395.52" id="SvgjsSvg5100"><g><svg viewBox="0 0 395.52 74.23322894625475" height="74.23322894625475" width="395.52"><g transform="matrix(1,0,0,1,0,0)"><svg width="395.52" viewBox="3.05 -35.21 230.73999999999998 43.32" height="74.23322894625475" data-palette-color="url(#9dcd6733-3c7d-47a3-9189-f2a766ada4e3)"><path d="M27.51-34.23L31.71-34.23Q32.71-34.23 32.71-33.2L32.71-33.2Q32.71-31.96 32.67-30.71 32.62-29.47 32.59-28.22L32.59-28.22Q32.54-25.61 32.52-22.97 32.5-20.34 32.5-17.72L32.5-17.72Q32.5-14.92 32.52-12.08 32.54-9.25 32.59-6.42L32.59-6.42Q32.64-5.08 32.69-3.72 32.74-2.37 32.74-1.03L32.74-1.03Q32.74 0 31.74 0L31.74 0 27.54 0Q27 0 26.81-0.24 26.61-0.49 26.54-0.98L26.54-0.98Q26.49-1.42 26.48-2.21 26.46-3 26.48-3.83 26.49-4.66 26.49-5.18L26.49-5.18Q26.42-9.57 26.42-13.96L26.42-13.96Q26.42-14.26 26.1-14.26L26.1-14.26 9.69-14.26Q9.4-14.26 9.4-13.96L9.4-13.96Q9.4-9.57 9.33-5.18L9.33-5.18Q9.33-4.66 9.34-3.83 9.35-3 9.35-2.21 9.35-1.42 9.28-0.98L9.28-0.98Q9.2-0.49 9.02-0.24 8.84 0 8.28 0L8.28 0 4.05 0Q3.05 0 3.05-1.03L3.05-1.03Q3.05-2.37 3.11-3.72 3.17-5.08 3.2-6.42L3.2-6.42Q3.25-9.25 3.27-12.08 3.3-14.92 3.3-17.72L3.3-17.72Q3.3-20.34 3.27-22.97 3.25-25.61 3.2-28.22L3.2-28.22Q3.17-29.47 3.13-30.71 3.08-31.96 3.08-33.2L3.08-33.2Q3.08-34.23 4.08-34.23L4.08-34.23 8.3-34.23Q8.86-34.23 9.05-33.98 9.23-33.74 9.3-33.25L9.3-33.25Q9.4-32.59 9.36-31.24 9.33-29.88 9.35-29.1L9.35-29.1Q9.38-26.93 9.39-24.74 9.4-22.56 9.4-20.39L9.4-20.39Q9.4-20.09 9.72-20.09L9.72-20.09 26.1-20.09Q26.42-20.09 26.42-20.39L26.42-20.39Q26.42-22.56 26.43-24.74 26.44-26.93 26.46-29.1L26.46-29.1Q26.49-29.88 26.45-31.24 26.42-32.59 26.51-33.25L26.51-33.25Q26.59-33.74 26.78-33.98 26.98-34.23 27.51-34.23L27.51-34.23ZM49 0.59L49 0.59Q45.43 0.59 42.78-0.83 40.13-2.25 38.67-4.86 37.2-7.47 37.2-11.06L37.2-11.06Q37.2-14.4 38.6-17.07 39.99-19.73 42.53-21.28 45.07-22.83 48.48-22.83L48.48-22.83Q52.71-22.83 55.11-20.46 57.52-18.09 58.37-14.16L58.37-14.16Q58.4-14.09 58.4-13.92L58.4-13.92Q58.4-13.55 58.21-13.37 58.03-13.18 57.74-13.06L57.74-13.06Q56.91-12.67 55.98-12.38 55.05-12.08 54.17-11.74L54.17-11.74Q51.61-10.79 49.02-9.88 46.43-8.96 43.89-7.93L43.89-7.93Q43.7-7.84 43.7-7.69L43.7-7.69Q43.7-7.62 43.75-7.52L43.75-7.52Q44.72-5.76 46.43-4.91 48.14-4.05 50.1-4.05L50.1-4.05Q51.63-4.05 52.96-4.54 54.29-5.03 55.59-5.76L55.59-5.76Q55.76-5.86 55.93-5.93 56.1-6.01 56.27-6.01L56.27-6.01Q56.61-6.01 56.8-5.8 56.98-5.59 57.1-5.32L57.1-5.32Q57.2-5.15 57.48-4.55 57.76-3.96 58.02-3.36 58.27-2.76 58.27-2.59L58.27-2.59Q58.27-2.32 58.13-2.15 57.98-1.98 57.79-1.83L57.79-1.83Q56.05-0.63 53.57-0.02 51.1 0.59 49 0.59ZM42.87-11.3L42.87-11.3Q45.33-12.16 47.8-13.01 50.27-13.87 52.71-14.72L52.71-14.72Q52.1-16.06 51.01-17.07 49.92-18.07 48.34-18.07L48.34-18.07Q46.48-18.07 45.26-17.07 44.04-16.06 43.45-14.51 42.87-12.96 42.87-11.3ZM70.94 0.46L70.94 0.46Q67.77 0.46 65.62-1.05 63.47-2.56 62.39-5.07 61.3-7.57 61.3-10.5L61.3-10.5 61.3-10.89Q61.35-13.96 62.58-16.67 63.81-19.38 66.16-21.06 68.5-22.73 71.82-22.73L71.82-22.73Q73.87-22.73 75.64-21.96 77.41-21.19 78.95-19.87L78.95-19.87Q79.12-19.7 79.24-19.7L79.24-19.7Q79.54-19.7 79.52-20.31 79.51-20.92 79.69-21.53 79.88-22.14 80.66-22.14L80.66-22.14 84.1-22.14Q85.1-22.14 85.1-21.14L85.1-21.14Q85.1-20.09 85.09-19.04 85.08-17.99 85.08-16.94L85.08-16.94Q85.08-14.26 85.11-11.55 85.15-8.84 85.18-6.15L85.18-6.15Q85.2-4.88 85.24-3.6 85.27-2.32 85.27-1.03L85.27-1.03Q85.27 0 84.27 0L84.27 0 80.44 0Q79.78 0 79.58-0.43 79.39-0.85 79.41-1.44 79.44-2.03 79.41-2.49L79.41-2.49Q79.41-2.56 79.39-2.73 79.37-2.91 79.24-2.91L79.24-2.91Q79.15-2.91 79.06-2.83 78.97-2.76 78.9-2.71L78.9-2.71Q77.19-1.27 75.21-0.4 73.24 0.46 70.94 0.46ZM73.43-4.74L73.43-4.74Q75.17-4.74 76.64-5.46 78.12-6.18 78.95-7.74L78.95-7.74Q79-7.84 79.18-8.24 79.37-8.64 79.37-8.74L79.37-8.74Q79.37-9.59 79.35-10.45 79.34-11.3 79.34-12.13L79.34-12.13Q79.34-12.52 79.37-13 79.39-13.48 79.34-13.84L79.34-13.84Q79.32-14.01 79.16-14.36 79-14.7 78.93-14.84L78.93-14.84Q78.07-16.38 76.51-17.14 74.95-17.9 73.24-17.9L73.24-17.9Q71.43-17.9 70.06-16.99 68.7-16.09 67.93-14.61 67.16-13.13 67.16-11.38L67.16-11.38Q67.16-9.62 67.96-8.11 68.77-6.59 70.2-5.66 71.63-4.74 73.43-4.74ZM90.18-34.2L90.18-34.2Q90.18-35.21 91.18-35.21L91.18-35.21 95.04-35.21Q96.04-35.21 96.04-34.2L96.04-34.2Q96.04-30.05 96.01-25.9 95.99-21.75 95.99-17.6L95.99-17.6Q95.99-13.45 96.01-9.3 96.04-5.15 96.04-1L96.04-1Q96.04 0 95.04 0L95.04 0 91.18 0Q90.18 0 90.18-1L90.18-1Q90.18-5.15 90.2-9.3 90.23-13.45 90.23-17.6L90.23-17.6Q90.23-21.75 90.2-25.9 90.18-30.05 90.18-34.2ZM103.53-22.49L103.53-22.49Q103.53-24.58 103.51-26.67 103.48-28.76 103.48-30.83L103.48-30.83Q103.48-31.84 104.48-31.84L104.48-31.84 108.32-31.84Q109.32-31.84 109.32-30.83L109.32-30.83Q109.32-28.76 109.3-26.67 109.29-24.58 109.29-22.49L109.29-22.49Q109.29-22.19 109.61-22.19L109.61-22.19 113.44-22.19Q114.44-22.19 114.44-21.19L114.44-21.19Q114.44-20.43 114.43-19.67 114.42-18.9 114.42-18.12L114.42-18.12Q114.42-17.11 113.42-17.11L113.42-17.11 109.61-17.11Q109.29-17.11 109.29-16.82L109.29-16.82Q109.29-12.87 109.32-8.91 109.34-4.96 109.34-1L109.34-1Q109.34 0 108.34 0L108.34 0 104.46 0Q103.46 0 103.46-1L103.46-1Q103.46-4.96 103.49-8.91 103.53-12.87 103.53-16.82L103.53-16.82Q103.53-17.19 103.02-17.18 102.5-17.16 101.85-17.09 101.19-17.02 100.67-17.19 100.16-17.36 100.16-18.12L100.16-18.12 100.16-21.19Q100.16-22.19 101.16-22.19L101.16-22.19 103.21-22.19Q103.53-22.19 103.53-22.49ZM122.84 0L119.01 0Q118.01 0 118.01-1.03L118.01-1.03Q118.01-2.37 118.04-3.7 118.08-5.03 118.1-6.37L118.1-6.37Q118.15-9.18 118.18-11.99 118.2-14.79 118.2-17.6L118.2-17.6Q118.2-20.41 118.18-23.22 118.15-26.03 118.1-28.83L118.1-28.83Q118.08-30.18 118.04-31.51 118.01-32.84 118.01-34.18L118.01-34.18Q118.01-35.21 119.01-35.21L119.01-35.21 122.72-35.21Q123.3-35.21 123.49-34.96 123.67-34.72 123.72-34.2L123.72-34.2Q123.77-33.89 123.74-33.52 123.72-33.15 123.74-32.81L123.74-32.81 123.77-29.54Q123.79-27.1 123.8-24.65 123.82-22.19 123.82-19.73L123.82-19.73Q123.82-19.68 123.83-19.45 123.84-19.21 123.99-19.21L123.99-19.21Q124.11-19.21 124.23-19.34 124.35-19.46 124.4-19.53L124.4-19.53Q127.36-22.73 131.87-22.73L131.87-22.73Q133.8-22.73 135.46-21.96 137.12-21.19 138.16-19.73 139.2-18.26 139.2-16.21L139.2-16.21Q139.2-12.43 139.28-8.62 139.37-4.81 139.37-1.03L139.37-1.03Q139.37 0 138.37 0L138.37 0 134.53 0Q133.95 0 133.76-0.24 133.58-0.49 133.53-1L133.53-1Q133.43-1.83 133.47-3.02 133.51-4.2 133.48-5.08L133.48-5.08Q133.46-7.35 133.46-9.61 133.46-11.87 133.46-14.14L133.46-14.14Q133.46-15.87 132.48-16.74 131.51-17.6 129.85-17.6L129.85-17.6Q127.8-17.6 126.49-16.32 125.18-15.04 124.55-13.18 123.91-11.33 123.91-9.57L123.91-9.57Q123.91-7.42 123.89-5.29 123.86-3.15 123.84-1L123.84-1Q123.84 0 122.84 0L122.84 0ZM161.8-32.45L161.8-32.45Q161.8-32.32 161.63-31.54 161.46-30.76 161.28-29.97 161.09-29.17 161.02-29L161.02-29Q160.92-28.66 160.75-28.41 160.58-28.15 160.17-28.15L160.17-28.15Q159.9-28.15 159.58-28.27L159.58-28.27Q158.65-28.59 157.71-28.8 156.77-29 155.77-29L155.77-29Q154.55-29 153.34-28.66 152.13-28.32 151.33-27.49 150.52-26.66 150.52-25.2L150.52-25.2Q150.52-23.36 151.45-22.18 152.38-21 153.83-20.15 155.28-19.31 156.92-18.49 158.55-17.68 160.01-16.56 161.46-15.45 162.39-13.77 163.32-12.08 163.32-9.45L163.32-9.45Q163.32-5.83 161.61-3.69 159.9-1.54 157.11-0.59 154.33 0.37 151.13 0.37L151.13 0.37Q150.18 0.37 148.87 0.26 147.57 0.15 146.29-0.09 145-0.32 144.13-0.66L144.13-0.66Q143.83-0.78 143.64-0.95 143.44-1.12 143.44-1.49L143.44-1.49Q143.44-1.64 143.64-2.45 143.83-3.27 144.05-4.1 144.27-4.93 144.32-5.13L144.32-5.13Q144.44-5.47 144.6-5.69 144.76-5.91 145.18-5.91L145.18-5.91Q145.42-5.91 145.64-5.83L145.64-5.83Q146.84-5.49 148.07-5.25 149.3-5 150.55-5L150.55-5Q152.08-5 153.51-5.43 154.94-5.86 155.86-6.88 156.77-7.91 156.77-9.69L156.77-9.69Q156.77-11.72 155.82-12.95 154.87-14.18 153.38-15.03 151.89-15.87 150.22-16.64 148.54-17.41 147.06-18.43 145.57-19.46 144.61-21.09 143.66-22.73 143.66-25.34L143.66-25.34Q143.66-28.59 145.2-30.58 146.74-32.57 149.25-33.5 151.77-34.42 154.65-34.42L154.65-34.42Q156.09-34.42 157.97-34.16 159.85-33.89 161.17-33.3L161.17-33.3Q161.46-33.18 161.63-33 161.8-32.81 161.8-32.45ZM174.88 8.11L171.32 8.11Q170.98 8.11 170.59 7.98 170.2 7.86 170.2 7.4L170.2 7.4Q170.2 7.2 170.26 7.03 170.32 6.86 170.39 6.69L170.39 6.69Q171.32 4.57 172.31 2.47 173.3 0.37 174.23-1.76L174.23-1.76 174.23-1.98Q172.2-6.67 170.17-11.35 168.15-16.04 166.14-20.75L166.14-20.75Q165.97-21.14 165.97-21.44L165.97-21.44Q165.97-21.9 166.35-22.02 166.73-22.14 167.07-22.14L167.07-22.14 171.34-22.14Q171.74-22.14 171.92-21.98 172.1-21.83 172.27-21.51L172.27-21.51Q172.69-20.68 173.02-19.78 173.35-18.87 173.66-18.02L173.66-18.02Q174.52-15.89 175.34-13.76 176.15-11.62 177.06-9.52L177.06-9.52Q177.11-9.45 177.18-9.31 177.25-9.18 177.35-9.18L177.35-9.18Q177.45-9.18 177.52-9.3 177.59-9.42 177.62-9.5L177.62-9.5Q178.6-11.6 179.5-13.76 180.4-15.92 181.33-18.04L181.33-18.04Q181.7-18.9 182.05-19.81 182.4-20.73 182.84-21.56L182.84-21.56Q183.19-22.14 183.77-22.14L183.77-22.14 186.8-22.14Q187.17-22.14 187.53-22.02 187.9-21.9 187.9-21.44L187.9-21.44Q187.9-21.14 187.73-20.75L187.73-20.75Q185.94-16.41 184.1-12.08 182.26-7.76 180.45-3.42L180.45-3.42Q179.69-1.59 178.93 0.23 178.16 2.05 177.38 3.86L177.38 3.86Q176.98 4.76 176.61 5.69 176.23 6.62 175.81 7.5L175.81 7.5Q175.52 8.11 174.88 8.11L174.88 8.11ZM192.31-22.14L195.61-22.14Q196.51-22.14 196.61-21.26L196.61-21.26Q196.68-20.78 196.73-20.29 196.78-19.8 196.83-19.31L196.83-19.31Q196.83-19.26 196.88-19.03 196.93-18.8 197.05-18.8L197.05-18.8Q197.17-18.8 197.28-18.95 197.39-19.09 197.44-19.17L197.44-19.17Q198.91-21.04 201.01-21.88 203.11-22.71 205.42-22.71L205.42-22.71Q207.33-22.71 208.93-21.91 210.53-21.12 211.5-19.67 212.48-18.21 212.48-16.21L212.48-16.21Q212.48-12.43 212.57-8.62 212.65-4.81 212.65-1.03L212.65-1.03Q212.65 0 211.65 0L211.65 0 207.82 0Q206.89 0 206.82-1L206.82-1Q206.74-2.05 206.77-3.11 206.79-4.17 206.77-5.22L206.77-5.22Q206.74-7.47 206.74-9.69 206.74-11.91 206.74-14.14L206.74-14.14Q206.74-15.87 205.74-16.74 204.74-17.6 203.08-17.6L203.08-17.6Q201.01-17.6 199.67-16.33 198.34-15.06 197.7-13.21 197.05-11.35 197.05-9.57L197.05-9.57Q197.05-7.42 197.03-5.29 197-3.15 196.98-1L196.98-1Q196.98 0 195.98 0L195.98 0 192.14 0Q191.14 0 191.14-1.03L191.14-1.03Q191.14-2.39 191.18-3.75 191.22-5.1 191.24-6.45L191.24-6.45Q191.31-12.16 191.31-17.87L191.31-17.87 191.31-21.14Q191.31-22.14 192.31-22.14L192.31-22.14ZM231.74-5.62L231.74-5.62Q232.08-5.62 232.27-5.4 232.45-5.18 232.57-4.91L232.57-4.91Q232.67-4.71 232.96-3.96 233.25-3.2 233.51-2.47 233.77-1.73 233.77-1.59L233.77-1.59Q233.77-1.05 232.92-0.66 232.08-0.27 230.91-0.02 229.74 0.22 228.69 0.33 227.64 0.44 227.2 0.44L227.2 0.44Q222.05 0.44 219.17-2.61 216.29-5.66 216.29-10.74L216.29-10.74Q216.29-14.14 217.62-16.85 218.95-19.56 221.46-21.14 223.98-22.73 227.49-22.73L227.49-22.73Q228.86-22.73 230.45-22.42 232.03-22.12 233.23-21.46L233.23-21.46Q233.47-21.34 233.63-21.18 233.79-21.02 233.79-20.73L233.79-20.73Q233.79-20.48 233.67-20.24L233.67-20.24 232.55-17.41Q232.28-16.72 231.69-16.72L231.69-16.72Q231.45-16.72 231.15-16.85L231.15-16.85Q230.35-17.11 229.54-17.3 228.74-17.48 227.88-17.48L227.88-17.48Q224.93-17.48 223.5-15.63 222.07-13.77 222.07-11.01L222.07-11.01Q222.07-8.35 223.43-6.53 224.78-4.71 227.64-4.71L227.64-4.71Q228.57-4.71 229.42-4.93 230.28-5.15 231.13-5.47L231.13-5.47Q231.28-5.52 231.42-5.57 231.57-5.62 231.74-5.62Z" opacity="1" transform="matrix(1,0,0,1,0,0)" fill="black" class="wordmark-text-0" id="SvgjsPath5099"></path></svg></g></svg></g></svg></g></svg></g><g><svg viewBox="0 0 244.43135999999998 130.87375775444255" height="130.87375775444255" width="244.43135999999998"><g><svg xmlns="http://www.w3.org/2000/svg" xmlns:xlink="http://www.w3.org/1999/xlink" version="1.1" x="0" y="0" viewBox="0.6896103727003051 23.599 98.62188968419832 52.80426087640771" enable-background="new 0 0 100 100" xml:space="preserve" height="130.87375775444255" width="244.43135999999998" class="icon-icon-0" data-fill-palette-color="accent" id="SvgjsSvg5098"><g fill="black"><path d="M97.066 49.294H84.667C83.748 49.294 82.922 49.854 82.582 50.706L81.041 54.563 72.499 33.185A2.243 2.243 0 0 0 68.33 33.185L61.894 49.294H53.06C55.074 43.669 55.104 37.549 53.018 32.66 51.208 28.42 48.037 25.536 43.849 24.32 42.2 23.842 40.584 23.599 39.045 23.599 33.326 23.599 29.691 26.836 27.635 29.587 25.578 26.836 21.944 23.599 16.224 23.599 14.685 23.599 13.069 23.842 11.42 24.321 7.232 25.536 4.062 28.421 2.252 32.66-0.249 38.521 0.281 46.153 3.638 52.579 9.163 63.151 25.598 75.44 26.295 75.959A2.24 2.24 0 0 0 28.973 75.959C29.644 75.46 44.882 64.064 50.955 53.784H63.415C64.333 53.784 65.159 53.224 65.5 52.372L70.415 40.069 78.957 61.448A2.245 2.245 0 0 0 83.127 61.448L86.188 53.784H97.067A2.245 2.245 0 0 0 97.066 49.294M27.634 71.325C23.635 68.192 11.806 58.516 7.617 50.5 4.91 45.316 4.425 39.006 6.381 34.422 7.262 32.358 9.069 29.678 12.672 28.631 13.914 28.271 15.109 28.088 16.224 28.088 22.353 28.088 25.085 33.743 25.571 34.877A2.247 2.247 0 0 0 29.699 34.877C30.184 33.743 32.916 28.088 39.045 28.088 40.16 28.088 41.355 28.271 42.596 28.631 46.2 29.678 48.007 32.358 48.887 34.422 50.845 39.005 50.359 45.316 47.652 50.499 43.462 58.516 31.633 68.192 27.634 71.325" fill="black"></path></g></svg></g></svg></g></svg></g><defs><mask></mask></defs></svg><rect width="395.5199999999999" height="78.73015170449449" fill="black" stroke="none" visibility="hidden"></rect></g></mask></svg><rect width="395.5199999999999" height="78.73015170449449" fill="black" stroke="none" visibility="hidden"></rect></g></mask><linearGradient x1="0" x2="1" y1="0.548" y2="0.55" id="e609aaec-1fe5-4ab5-9d54-46b4f23da029"><stop stop-color="#ff6cab" offset="0"></stop><stop stop-color="#7366ff" offset="1"></stop></linearGradient><rect width="395.5199999999999" height="78.73015170449449" fill="url(#e609aaec-1fe5-4ab5-9d54-46b4f23da029)" mask="url(#9b0017eb-5213-43b8-bdd5-d00db70a1cd1)" data-fill-palette-color="accent"></rect></svg><rect width="395.5199999999999" height="78.73015170449449" fill="none" stroke="none" visibility="hidden"></rect></g></svg></g></svg>